<svg width="20" height="21" fill="none" xmlns="http://www.w3.org/2000/svg"><path d="M7.242 8.895C6.935 7.819 6 7.082 4.916 7.082s-2.02.737-2.326 1.813c-.776.507-1.42 1.29-1.873 2.258C.249 12.167 0 13.35 0 14.594c0 1.69.454 3.272 1.287 4.424.908 1.275 2.195 1.967 3.629 1.967 1.434 0 2.721-.692 3.628-1.967a.31.31 0 0 0-.058-.43c-.132-.107-.308-.077-.41.062-.79 1.106-1.917 1.72-3.16 1.72-1.244 0-2.37-.614-3.16-1.72-.761-1.06-1.17-2.504-1.17-4.056 0-1.152.219-2.258.658-3.165.424-.906 1.024-1.613 1.755-2.058a.27.27 0 0 0 .132-.2c.205-.86.936-1.475 1.785-1.475.848 0 1.595.6 1.785 1.475a.366.366 0 0 0 .131.2c.732.445 1.332 1.167 1.756 2.058.424.922.659 2.013.659 3.165 0 1.03-.176 2.012-.527 2.873-.059.153 0 .338.16.4a.28.28 0 0 0 .381-.17c.38-.937.57-1.997.57-3.103 0-1.244-.248-2.443-.716-3.441-.44-.968-1.097-1.751-1.873-2.258Z" fill="#961914"/><path d="M2.721 12.674a.291.291 0 0 0-.365.215 6.385 6.385 0 0 0-.22 1.705c0 2.412 1.17 4.148 2.78 4.148 1.61 0 2.78-1.752 2.78-4.148s-1.17-4.148-2.78-4.148c-.732 0-1.405.369-1.902 1.045a.323.323 0 0 0 .044.43c.131.108.307.077.41-.061.394-.523.892-.8 1.448-.8 1.273 0 2.194 1.49 2.194 3.534 0 2.043-.921 3.533-2.194 3.533s-2.195-1.49-2.195-3.533c0-.553.073-1.075.205-1.536a.322.322 0 0 0-.205-.384ZM18.712 1.966C17.805.691 16.518 0 15.084 0c-1.434 0-2.736.691-3.628 1.966-.585.815-.995 1.86-1.17 3.011-.045.154.072.323.233.354a.31.31 0 0 0 .337-.262c.16-1.044.527-1.997 1.068-2.734.79-1.106 1.902-1.72 3.16-1.72 1.244 0 2.37.614 3.16 1.72.761 1.06 1.17 2.504 1.17 4.056 0 1.152-.219 2.258-.658 3.164-.424.907-1.024 1.613-1.755 2.059a.27.27 0 0 0-.132.2c-.205.86-.936 1.474-1.785 1.474-.848 0-1.595-.599-1.785-1.475a.355.355 0 0 0-.146-.184c-.732-.445-1.332-1.167-1.756-2.058-.424-.922-.643-2.028-.643-3.18a.301.301 0 0 0-.293-.308.301.301 0 0 0-.293.308c0 1.244.249 2.442.717 3.44.454.969 1.097 1.752 1.873 2.259.307 1.075 1.244 1.813 2.326 1.813 1.083 0 2.02-.738 2.326-1.813.776-.507 1.434-1.29 1.873-2.258.468-.999.717-2.197.717-3.441 0-1.69-.468-3.257-1.288-4.425Z" fill="#961914"/><path d="M17.366 8.034c.161.031.322-.061.352-.23.102-.446.146-.922.146-1.413 0-2.412-1.17-4.148-2.78-4.148-1.61 0-2.794 1.751-2.794 4.148 0 2.396 1.17 4.148 2.78 4.148.863 0 1.623-.508 2.15-1.414a.306.306 0 0 0-.102-.415.276.276 0 0 0-.395.108c-.41.722-.995 1.121-1.639 1.121-1.273 0-2.194-1.49-2.194-3.533s.921-3.533 2.194-3.533 2.195 1.49 2.195 3.533c0 .446-.044.876-.132 1.275a.286.286 0 0 0 .22.353ZM4.287 15.977a.301.301 0 0 0-.293-.308.301.301 0 0 0-.292.308.3.3 0 0 0 .292.307.302.302 0 0 0 .293-.307Zm.878 1.167a.3.3 0 0 0 .292-.307.3.3 0 0 0-.292-.308.3.3 0 0 0-.293.308.3.3 0 0 0 .293.307Zm.512-4.132a.3.3 0 0 0 .292-.308.3.3 0 0 0-.292-.307.3.3 0 0 0-.293.307.3.3 0 0 0 .293.308Z" fill="#961914"/><path d="M13.855 5.023c0 .17.132.308.293.308a.301.301 0 0 0 .292-.308.301.301 0 0 0-.292-.307.301.301 0 0 0-.293.307Zm1.463-.553a.3.3 0 0 0 .293-.307.3.3 0 0 0-.293-.307.3.3 0 0 0-.292.307.3.3 0 0 0 .292.307Zm.527 4.133a.3.3 0 0 0 .292-.307.3.3 0 0 0-.292-.308.3.3 0 0 0-.293.308.3.3 0 0 0 .293.307Z" fill="#961914"/></svg>