<svg width="24" height="24" fill="none" xmlns="http://www.w3.org/2000/svg"><path d="M4.259 16.594a8.996 8.996 0 1 1 3.147 3.147h0l-3.108.888a.75.75 0 0 1-.927-.927l.888-3.109h0Z" stroke="#fff" stroke-linecap="round" stroke-linejoin="round"/><path d="M7.5 10.065v-.001A2.572 2.572 0 0 1 10.074 7.5M7.5 10.065l3.451-2.056a1.01 1.01 0 0 0-.877-.509s0 0 0 0M7.5 10.065a6.426 6.426 0 0 0 6.435 6.435V16L7.5 10.065ZM10.074 7.5s0 0 0 0V8v-.5Zm2.138 5.39.257.428.206-.455a3.037 3.037 0 0 1-.228-.114l-.235.14Zm-1.102-1.102.141-.235a3.074 3.074 0 0 1-.114-.228l-.456.206.43.257Z" stroke="#fff" stroke-linecap="round" stroke-linejoin="round"/></svg>