<svg width="150" height="454" fill="none" xmlns="http://www.w3.org/2000/svg"><g clip-path="url(#a)" fill="#fff"><path d="M54.314 90.309c5.377-2.777 10.398-6.127 15.067-9.939.682-.58-.332-1.522-1.014-.941a83.55 83.55 0 0 1-14.794 9.733c-.8.39-.059 1.564.74 1.147ZM41.15 81.106a116.082 116.082 0 0 1 4.516-19.034c.252-.845-1.105-1.161-1.385-.315-2.034 6.205-3.53 12.586-4.517 19.034-.11.896 1.248 1.213 1.386.316Zm17.882 25.022c6.292 1.014 12.556 2.028 18.848 3.041.875.138 1.222-1.213.319-1.349-6.292-1.014-12.556-2.028-18.848-3.041-.875-.166-1.222 1.185-.319 1.349Z"/></g><g clip-path="url(#b)"><path d="M-80.454 422.438c27.37-4.487 53.247-16.27 75.202-33.082 22.381-17.125 41.03-39.727 52.62-65.497 6.014-13.388 10.124-28.084 9.066-42.862-1.065-14.886-7.31-28.985-15.154-41.524-7.979-12.792-18.1-24.721-30.373-33.591-11.179-8.098-24.924-13.691-38.929-12.227-21.683 2.277-42.596 25.952-32.118 47.812 2.91 6.052 7.693 10.982 13.006 14.994 5.756 4.338 12.36 7.871 19.317 9.824 13.366 3.764 26.763.2 37.93-7.624 23.352-16.32 36.202-45.488 39.307-73.113 3.241-28.77-4.233-57.711-18.894-82.51-14.003-23.756-34.202-43.812-58.19-57.487-23.175-13.205-50.047-20.43-76.773-18.51a119.812 119.812 0 0 0-19.228 2.995c-.937.228-.564 1.703.388 1.448 25.444-6.122 52.206-3.194 76.422 6.45 24.414 9.723 45.978 26.021 62.507 46.372 17.415 21.423 29.604 47.594 32.378 75.22 2.862 28.201-4.195 57.882-21.375 80.668-7.934 10.53-18.454 20.022-31.18 24.182-14.015 4.572-28.232.281-40.004-7.88-10.573-7.328-19.207-18.924-16.459-32.414 2.23-10.955 10.614-20.141 20.4-25.089 25.989-13.189 53.888 7.291 69.973 26.652 9.6 11.559 17.825 25.017 22.354 39.42 4.425 14.097 4.002 28.65-.087 42.764-3.906 13.555-10.55 26.335-18.323 38.041A174.28 174.28 0 0 1 7.02 376.889c-19.586 18.284-43.368 32.257-69.125 39.772a156.905 156.905 0 0 1-18.843 4.267c-.854.207-.466 1.655.493 1.51Z" fill="#fff"/></g><defs><clipPath id="a"><rect x="39.107" y="61.459" width="38" height="49" rx="2" transform="rotate(-1.946 39.107 61.459)" fill="#fff"/></clipPath><clipPath id="b"><rect x="-26.657" y="453.707" width="296" height="353" rx="2" transform="rotate(-150 -26.657 453.707)" fill="#fff"/></clipPath></defs></svg>