<svg width="40" height="40" fill="none" xmlns="http://www.w3.org/2000/svg"><path d="M24.909 6.25a12.524 12.524 0 0 1 8.841 8.841M23.615 11.08a7.514 7.514 0 0 1 5.304 5.305M14.45 19.502a13.18 13.18 0 0 0 6.102 6.075 1.24 1.24 0 0 0 1.223-.093l3.912-2.608a1.25 1.25 0 0 1 1.185-.11l7.319 3.137a1.245 1.245 0 0 1 .75 1.297 7.501 7.501 0 0 1-7.441 6.55A21.25 21.25 0 0 1 6.25 12.5a7.501 7.501 0 0 1 6.55-7.44 1.246 1.246 0 0 1 1.297.75l3.139 7.324a1.25 1.25 0 0 1-.103 1.177l-2.6 3.972a1.24 1.24 0 0 0-.084 1.22v0Z" stroke="#961914" stroke-width="2" stroke-linecap="round" stroke-linejoin="round"/></svg>