<svg width="140" height="16" fill="none" xmlns="http://www.w3.org/2000/svg"><path d="M139.354 8.354a.5.5 0 0 0 0-.708l-3.182-3.182a.501.501 0 0 0-.708.708L138.293 8l-2.829 2.828a.5.5 0 0 0 .708.708l3.182-3.182ZM4.964 8.5a.5.5 0 0 0 0-1v1Zm9.929-1a.5.5 0 1 0 0 1v-1Zm9.928 1a.5.5 0 1 0 0-1v1Zm9.929-1a.5.5 0 0 0 0 1v-1Zm9.929 1a.5.5 0 0 0 0-1v1Zm9.928-1a.5.5 0 0 0 0 1v-1Zm9.929 1a.5.5 0 1 0 0-1v1Zm9.928-1a.5.5 0 1 0 0 1v-1Zm9.929 1a.5.5 0 0 0 0-1v1Zm9.928-1a.5.5 0 0 0 0 1v-1Zm9.929 1a.5.5 0 0 0 0-1v1Zm9.929-1a.5.5 0 1 0 0 1v-1Zm9.928 1a.5.5 0 0 0 0-1v1Zm9.929-1a.5.5 0 0 0 0 1v-1ZM0 8.5h4.964v-1H0v1Zm14.893 0h9.928v-1h-9.928v1Zm19.857 0h9.929v-1H34.75v1Zm19.857 0h9.929v-1h-9.929v1Zm19.857 0h9.929v-1h-9.929v1Zm19.857 0h9.929v-1h-9.929v1Zm19.858 0h9.928v-1h-9.928v1Zm19.857 0H139v-1h-4.964v1Zm5.671.207a1 1 0 0 0 0-1.414L133.343.929a1 1 0 1 0-1.414 1.414L137.586 8l-5.657 5.657a1 1 0 1 0 1.414 1.414l6.364-6.364ZM4.964 9a1 1 0 0 0 0-2v2Zm9.929-2a1 1 0 1 0 0 2V7Zm9.928 2a1 1 0 1 0 0-2v2Zm9.929-2a1 1 0 1 0 0 2V7Zm9.929 2a1 1 0 1 0 0-2v2Zm9.928-2a1 1 0 0 0 0 2V7Zm9.929 2a1 1 0 1 0 0-2v2Zm9.928-2a1 1 0 1 0 0 2V7Zm9.929 2a1 1 0 1 0 0-2v2Zm9.928-2a1 1 0 0 0 0 2V7Zm9.929 2a1 1 0 0 0 0-2v2Zm9.929-2a1 1 0 1 0 0 2V7Zm9.928 2a1 1 0 0 0 0-2v2Zm9.929-2a1 1 0 1 0 0 2V7ZM0 9h4.964V7H0v2Zm14.893 0h9.928V7h-9.928v2ZM34.75 9h9.929V7H34.75v2Zm19.857 0h9.929V7h-9.929v2Zm19.857 0h9.929V7h-9.929v2Zm19.857 0h9.929V7h-9.929v2Zm19.858 0h9.928V7h-9.928v2Zm19.857 0H139V7h-4.964v2Z" fill="#EAD1D0"/></svg>